HIERARCHY
ROOT Hips
{
  OFFSET 5.84602e-005 68.8428 3.50346
  CHANNELS 6 Xposition Yposition Zposition Zrotation Xrotation Yrotation
  JOINT Spine
  {
    OFFSET 0 8.597 -4.6522
    CHANNELS 3 Zrotation Xrotation Yrotation
    JOINT Spine1
    {
      OFFSET 0 7.8454 0.4098
      CHANNELS 3 Zrotation Xrotation Yrotation
      JOINT Spine2
      {
        OFFSET 0 9.7078 -2.1609
        CHANNELS 3 Zrotation Xrotation Yrotation
        JOINT Neck
        {
          OFFSET 0 21.8761 -0.4549
          CHANNELS 3 Zrotation Xrotation Yrotation
          JOINT Head
          {
            OFFSET 0 12.3537 3.3602
            CHANNELS 3 Zrotation Xrotation Yrotation
            End Site
            {
              OFFSET 0.0001 18.9506 0.5657
            }
          }
        }
        JOINT LeftShoulder
        {
          OFFSET 2.2086 21.1115 7.2329
          CHANNELS 3 Zrotation Xrotation Yrotation
          JOINT LeftArm
          {
            OFFSET 13.1193 3.0282 -4.8998
            CHANNELS 3 Zrotation Xrotation Yrotation
            JOINT LeftForeArm
            {
              OFFSET 27.4081 -0.0973053 -0.2375
              CHANNELS 3 Zrotation Xrotation Yrotation
              JOINT LeftHand
              {
                OFFSET 22.8641 0.0662994 -0.1369
                CHANNELS 3 Zrotation Xrotation Yrotation
                JOINT LeftHandIndex1
                {
                  OFFSET 8.8614 0.775009 2.4612
                  CHANNELS 3 Zrotation Xrotation Yrotation
                  JOINT LeftHandIndex2
                  {
                    OFFSET 3.3146 -0.808304 0.5841
                    CHANNELS 3 Zrotation Xrotation Yrotation
                    JOINT LeftHandIndex3
                    {
                      OFFSET 2.2628 -0.552002 0.3989
                      CHANNELS 3 Zrotation Xrotation Yrotation
                      End Site
                      {
                        OFFSET 1.6102 -0.4807 0.2612
                      }
                    }
                  }
                }
                JOINT LeftHandMiddle1
                {
                  OFFSET 8.9937 0.895004 0.2143
                  CHANNELS 3 Zrotation Xrotation Yrotation
                  JOINT LeftHandMiddle2
                  {
                    OFFSET 4.0984 0.0113983 -0.0242
                    CHANNELS 3 Zrotation Xrotation Yrotation
                    JOINT LeftHandMiddle3
                    {
                      OFFSET 2.2716 0.00689697 -0.0138001
                      CHANNELS 3 Zrotation Xrotation Yrotation
                      End Site
                      {
                        OFFSET 2.0404 -0.1441 0.0027
                      }
                    }
                  }
                }
                JOINT LeftHandRing1
                {
                  OFFSET 8.5234 0.597198 -2.0164
                  CHANNELS 3 Zrotation Xrotation Yrotation
                  JOINT LeftHandRing2
                  {
                    OFFSET 3.7188 -0.188293 -0.2328
                    CHANNELS 3 Zrotation Xrotation Yrotation
                    JOINT LeftHandRing3
                    {
                      OFFSET 2.1191 -0.106598 -0.1332
                      CHANNELS 3 Zrotation Xrotation Yrotation
                      End Site
                      {
                        OFFSET 1.8737 -0.2304 -0.0886
                      }
                    }
                  }
                }
                JOINT LeftHandPinky1
                {
                  OFFSET 7.9094 -0.601089 -3.4825
                  CHANNELS 3 Zrotation Xrotation Yrotation
                  JOINT LeftHandPinky2
                  {
                    OFFSET 2.2874 -0.477005 -0.6314
                    CHANNELS 3 Zrotation Xrotation Yrotation
                    JOINT LeftHandPinky3
                    {
                      OFFSET 1.6774 -0.349396 -0.4633
                      CHANNELS 3 Zrotation Xrotation Yrotation
                      End Site
                      {
                        OFFSET 1.4888 -0.4091 -0.3416
                      }
                    }
                  }
                }
                JOINT LeftHandThumb1
                {
                  OFFSET 1.833 -1.3875 1.3896
                  CHANNELS 3 Zrotation Xrotation Yrotation
                  JOINT LeftHandThumb2
                  {
                    OFFSET 3.4129 -1.121 2.5732
                    CHANNELS 3 Zrotation Xrotation Yrotation
                    JOINT LeftHandThumb3
                    {
                      OFFSET 2.2474 -0.804199 1.6192
                      CHANNELS 3 Zrotation Xrotation Yrotation
                      End Site
                      {
                        OFFSET 1.6527 -0.5689 1.1317
                      }
                    }
                  }
                }
              }
            }
          }
        }
        JOINT RightShoulder
        {
          OFFSET -2.2086 21.1115 7.2329
          CHANNELS 3 Zrotation Xrotation Yrotation
          JOINT RightArm
          {
            OFFSET -13.1216 3.0287 -4.9007
            CHANNELS 3 Zrotation Xrotation Yrotation
            JOINT RightForeArm
            {
              OFFSET -27.4081 -0.0973053 -0.2375
              CHANNELS 3 Zrotation Xrotation Yrotation
              JOINT RightHand
              {
                OFFSET -22.8641 0.0664063 -0.1369
                CHANNELS 3 Zrotation Xrotation Yrotation
                JOINT RightHandIndex1
                {
                  OFFSET -8.8614 0.774994 2.4612
                  CHANNELS 3 Zrotation Xrotation Yrotation
                  JOINT RightHandIndex2
                  {
                    OFFSET -3.3146 -0.808304 0.5841
                    CHANNELS 3 Zrotation Xrotation Yrotation
                    JOINT RightHandIndex3
                    {
                      OFFSET -2.2628 -0.552002 0.3989
                      CHANNELS 3 Zrotation Xrotation Yrotation
                      End Site
                      {
                        OFFSET -1.6102 -0.4807 0.2612
                      }
                    }
                  }
                }
                JOINT RightHandMiddle1
                {
                  OFFSET -8.9937 0.894989 0.2143
                  CHANNELS 3 Zrotation Xrotation Yrotation
                  JOINT RightHandMiddle2
                  {
                    OFFSET -4.0984 0.0113983 -0.0242
                    CHANNELS 3 Zrotation Xrotation Yrotation
                    JOINT RightHandMiddle3
                    {
                      OFFSET -2.2716 0.00691223 -0.0138001
                      CHANNELS 3 Zrotation Xrotation Yrotation
                      End Site
                      {
                        OFFSET -2.0404 -0.1441 0.0027
                      }
                    }
                  }
                }
                JOINT RightHandRing1
                {
                  OFFSET -8.5234 0.597198 -2.0164
                  CHANNELS 3 Zrotation Xrotation Yrotation
                  JOINT RightHandRing2
                  {
                    OFFSET -3.7188 -0.188309 -0.2328
                    CHANNELS 3 Zrotation Xrotation Yrotation
                    JOINT RightHandRing3
                    {
                      OFFSET -2.1191 -0.106598 -0.1332
                      CHANNELS 3 Zrotation Xrotation Yrotation
                      End Site
                      {
                        OFFSET -1.8737 -0.2304 -0.0886
                      }
                    }
                  }
                }
                JOINT RightHandPinky1
                {
                  OFFSET -7.9094 -0.601105 -3.4825
                  CHANNELS 3 Zrotation Xrotation Yrotation
                  JOINT RightHandPinky2
                  {
                    OFFSET -2.2874 -0.477005 -0.6314
                    CHANNELS 3 Zrotation Xrotation Yrotation
                    JOINT RightHandPinky3
                    {
                      OFFSET -1.6774 -0.349396 -0.4633
                      CHANNELS 3 Zrotation Xrotation Yrotation
                      End Site
                      {
                        OFFSET -1.4888 -0.4091 -0.3416
                      }
                    }
                  }
                }
                JOINT RightHandThumb1
                {
                  OFFSET -1.833 -1.38751 1.3896
                  CHANNELS 3 Zrotation Xrotation Yrotation
                  JOINT RightHandThumb2
                  {
                    OFFSET -3.41299 -1.12099 2.5732
                    CHANNELS 3 Zrotation Xrotation Yrotation
                    JOINT RightHandThumb3
                    {
                      OFFSET -2.24741 -0.804108 1.6192
                      CHANNELS 3 Zrotation Xrotation Yrotation
                      End Site
                      {
                        OFFSET -1.6527 -0.5689 1.1317
                      }
                    }
                  }
                }
              }
            }
          }
        }
      }
    }
  }
  JOINT RightUpLeg
  {
    OFFSET -9.1966 3.8861 -0.7581
    CHANNELS 3 Zrotation Xrotation Yrotation
    JOINT RightLeg
    {
      OFFSET -0.7359 -41.0265 0
      CHANNELS 3 Zrotation Xrotation Yrotation
      JOINT RightFoot
      {
        OFFSET 0 -40.2855 0
        CHANNELS 3 Zrotation Xrotation Yrotation
        JOINT RightToeBase
        {
          OFFSET 0 -5.6122 11.7359
          CHANNELS 3 Zrotation Xrotation Yrotation
          End Site
          {
            OFFSET 0 0 7.8731
          }
        }
      }
    }
  }
  JOINT LeftUpLeg
  {
    OFFSET 9.1965 3.8864 -0.7581
    CHANNELS 3 Zrotation Xrotation Yrotation
    JOINT LeftLeg
    {
      OFFSET 0.7359 -41.0268 0
      CHANNELS 3 Zrotation Xrotation Yrotation
      JOINT LeftFoot
      {
        OFFSET 0 -40.2855 0
        CHANNELS 3 Zrotation Xrotation Yrotation
        JOINT LeftToeBase
        {
          OFFSET 0 -5.6122 11.7359
          CHANNELS 3 Zrotation Xrotation Yrotation
          End Site
          {
            OFFSET 0 0 7.8731
          }
        }
      }
    }
  }
}
MOTION
Frames:	4
Frame Time:	0.0333333
1.01889 19.8324 -5.36809 -7.3848e-015 3.00291 -180 -0.489994 -7.96698 -0.467266 -1.06197 -15.9293 -1.01911 -1.06197 -15.9293 -1.01911 -10.5683 -16.7201 -2.98509 1.52029e-007 8.78776 -2.39801e-008 2.99337 4.23793 24.3537 23.9584 -63.4388 82.7111 -5.31214 73.9953 2.03494 59.604 15.8318 3.1681 1.44073e-006 -2.46962e-006 -2.49073e-006 2.63112e-006 -2.43692e-006 -4.28745e-007 -6.35729e-007 -1.55396e-006 -2.93035e-007 1.44073e-006 -2.46962e-006 -2.49073e-006 -0.014608 -9.24311e-005 -2.56446e-006 -1.31894e-006 -1.66274e-006 1.72671e-006 1.44073e-006 -2.46962e-006 -2.49073e-006 -0.0187625 -0.00117922 5.83344e-005 -6.35715e-007 -1.55391e-006 -2.93283e-007 1.44073e-006 -2.46962e-006 -2.49073e-006 -0.0122308 -0.00324198 0.000671643 -6.35735e-007 -1.55392e-006 -2.93184e-007 1.44073e-006 -2.46962e-006 -2.49073e-006 2.63112e-006 -2.43692e-006 -4.28745e-007 -6.35729e-007 -1.55396e-006 -2.93035e-007 -5.53004 3.68856 -23.6972 -24.0384 -62.4926 -84.9526 5.12912 74.072 -2.04768 -62.0033 17.9201 -1.591 -1.53257e-006 -7.0623e-007 1.05573e-007 -1.35601e-006 -1.08937e-006 1.65278e-007 -1.53257e-006 -7.0623e-007 1.05573e-007 -1.53257e-006 -7.0623e-007 1.05573e-007 0.0150044 -9.26275e-005 3.87808e-006 -1.53254e-006 -7.06217e-007 1.05666e-007 -1.53257e-006 -7.0623e-007 1.05573e-007 0.0190114 -0.00119351 -5.9602e-005 -1.29421e-006 -1.01367e-006 -2.49279e-006 -1.53257e-006 -7.0623e-007 1.05573e-007 0.0122566 -0.00324537 -0.00067583 -1.53254e-006 -7.06235e-007 1.0569e-007 -1.53257e-006 -7.0623e-007 1.05573e-007 -1.35601e-006 -1.08937e-006 1.65278e-007 -1.53257e-006 -7.0623e-007 1.05573e-007 -34.1542 -13.3411 46.542 120.257 41.9693 -152.717 -18.1569 41.1144 61.5419 6.36111e-015 -1.27222e-014 3.18055e-015 36.1843 -13.5581 -47.2282 -118.164 42.5547 151.222 21.3254 41.8454 -64.9644 7.19137e-006 -6.22722e-007 1.04042e-007 
1.0194 19.0636 -4.8289 -7.23759e-015 1.80302 -180 -0.489956 -7.64715 -0.463642 -1.05732 -15.2896 -1.0076 -1.05732 -15.2896 -1.0076 -10.5217 -16.7314 -2.9729 1.93272e-006 8.73977 -3.4934e-007 3.58462 2.90626 24.0484 23.9733 -63.2949 83.1158 -5.26614 74.0383 2.04143 59.3425 15.3889 2.26784 1.71662e-006 -2.37458e-007 -2.54359e-008 2.96916e-006 1.4925e-006 -5.51319e-006 2.10535e-006 3.79095e-007 -5.0899e-006 1.71662e-006 -2.37458e-007 -2.54359e-008 -0.0146045 -8.73425e-005 -3.05489e-006 1.52416e-006 3.28492e-007 -3.14494e-006 1.71662e-006 -2.37458e-007 -2.54359e-008 -0.0187421 -0.00117493 5.61629e-005 1.52407e-006 3.2859e-007 -3.14494e-006 1.71662e-006 -2.37458e-007 -2.54359e-008 -0.0122625 -0.00324562 0.000674374 1.52411e-006 3.28376e-007 -3.14498e-006 1.71662e-006 -2.37458e-007 -2.54359e-008 2.96916e-006 1.4925e-006 -5.51319e-006 2.10535e-006 3.79095e-007 -5.0899e-006 -5.84157 2.38615 -23.4813 -24.0382 -62.4957 -84.9446 5.10717 74.1148 -2.05404 -61.5392 17.2692 -0.869542 1.71362e-006 3.12099e-007 -4.41043e-008 1.88785e-006 -7.27465e-008 1.1944e-008 1.71362e-006 3.12099e-007 -4.41043e-008 1.71362e-006 3.12099e-007 -4.41043e-008 0.0149932 -9.11382e-005 -2.5494e-006 1.40527e-006 1.43732e-007 -6.14152e-007 1.71362e-006 3.12099e-007 -4.41043e-008 0.0189736 -0.00119006 -6.51404e-005 1.71357e-006 3.12095e-007 -4.41736e-008 1.71362e-006 3.12099e-007 -4.41043e-008 0.012235 -0.00323647 -0.000669092 1.71359e-006 3.12111e-007 -4.41846e-008 1.71362e-006 3.12099e-007 -4.41043e-008 1.88785e-006 -7.27465e-008 1.1944e-008 1.71362e-006 3.12099e-007 -4.41043e-008 -34.8747 -14.8641 45.9875 121.825 41.6228 -153.774 -17.9939 40.5353 62.1447 -5.38876e-006 1.43242e-007 2.0186e-006 36.9135 -15.0837 -46.6614 -119.735 42.242 152.287 21.1626 41.2906 -65.5608 3.84392e-006 -3.20965e-006 -1.0683e-006 
1.01992 18.298 -4.28798 -7.09057e-015 0.603088 -180 -0.489935 -7.32715 -0.460017 -1.05283 -14.6498 -0.99618 -1.05283 -14.6498 -0.99618 -10.4752 -16.7422 -2.96071 4.4824e-007 8.69178 1.80867e-006 4.16876 1.57027 23.7568 23.9857 -63.1508 83.5183 -5.21926 74.0804 2.04777 59.0743 14.9498 1.36691 1.87238e-006 -8.21345e-008 -5.08522e-006 1.56557e-006 -6.18608e-007 -8.75811e-008 7.01502e-006 4.1934e-007 -3.07239e-006 1.87238e-006 -8.21345e-008 -5.08522e-006 -0.0145854 -9.09517e-005 3.77878e-008 7.0147e-006 4.19729e-007 -3.07235e-006 1.87238e-006 -8.21345e-008 -5.08522e-006 -0.0187495 -0.00117735 5.54965e-005 7.49884e-006 4.11317e-007 -4.93891e-006 1.87238e-006 -8.21345e-008 -5.08522e-006 -0.0122593 -0.00324601 0.000680504 7.4981e-006 4.11206e-007 -4.93913e-006 1.87238e-006 -8.21345e-008 -5.08522e-006 1.56557e-006 -6.18608e-007 -8.75811e-008 7.01502e-006 4.1934e-007 -3.07239e-006 -6.14821 1.08156 -23.2726 -24.0378 -62.4988 -84.9366 5.08492 74.1574 -2.06058 -61.068 16.6237 -0.144661 5.41136e-006 -1.76129e-006 2.36119e-007 1.97544e-006 -2.36231e-006 3.20054e-007 1.80368e-006 -1.97576e-006 2.67587e-007 5.41136e-006 -1.76129e-006 2.36119e-007 0.0149967 -9.29057e-005 -8.28979e-006 1.63466e-006 -2.14584e-006 -4.09946e-007 5.41136e-006 -1.76129e-006 2.36119e-007 0.0189987 -0.00119425 -6.13289e-005 1.80364e-006 -1.97571e-006 2.67895e-007 5.41136e-006 -1.76129e-006 2.36119e-007 0.0122262 -0.00323796 -0.000660478 1.80367e-006 -1.97571e-006 2.67748e-007 5.41136e-006 -1.76129e-006 2.36119e-007 1.97544e-006 -2.36231e-006 3.20054e-007 1.80368e-006 -1.97576e-006 2.67587e-007 -35.6127 -16.3836 45.4038 123.377 41.2561 -154.818 -17.8227 39.9566 62.7423 -4.5418e-006 -3.77028e-006 -3.80829e-007 37.6611 -16.6054 -46.0656 -121.293 41.9089 153.341 20.9917 40.7363 -66.1521 -4.64175e-006 1.15396e-006 -2.22672e-006 
1.02046 17.5355 -3.74534 -6.94355e-015 -0.597336 -180 -0.489933 -7.00715 -0.456394 -1.04848 -14.0098 -0.984851 -1.04848 -14.0098 -0.984851 -10.4287 -16.7534 -2.94849 -9.86449e-007 8.64379 -5.99084e-007 4.74621 0.230654 23.4788 23.9959 -63.0068 83.9189 -5.17183 74.1239 2.05441 58.7993 14.5148 0.465393 3.84496e-007 -7.16019e-008 -1.78457e-006 8.19282e-007 7.7967e-007 -5.87035e-007 -4.77083e-015 -1.59028e-015 -3.18055e-015 3.84496e-007 -7.16019e-008 -1.78457e-006 -0.0146159 -9.03978e-005 6.37167e-006 -4.77083e-015 1.59028e-015 -6.36111e-015 3.84496e-007 -7.16019e-008 -1.78457e-006 -0.0187463 -0.00117487 6.0828e-005 7.06225e-031 -3.18055e-015 1.27222e-014 3.84496e-007 -7.16019e-008 -1.78457e-006 -0.0122843 -0.00325248 0.000681058 3.18055e-015 1.59028e-015 -6.36111e-015 3.84496e-007 -7.16019e-008 -1.78457e-006 8.19282e-007 7.7967e-007 -5.87035e-007 -4.77083e-015 -1.59028e-015 -3.18055e-015 -6.45019 -0.224708 -23.0707 -24.0376 -62.5019 -84.9286 5.06198 74.1996 -2.06692 -60.5896 15.9836 0.583589 9.67308e-007 -6.53796e-007 -2.26248e-006 1.08545e-006 -6.14356e-007 -7.36027e-007 9.67308e-007 -6.53796e-007 -2.26248e-006 9.67308e-007 -6.53796e-007 -2.26248e-006 0.0149968 -9.12272e-005 -2.94027e-006 9.69122e-007 -6.54103e-007 -2.2624e-006 9.67308e-007 -6.53796e-007 -2.26248e-006 0.0190187 -0.00119169 -5.78713e-005 9.4562e-007 -4.99532e-008 4.76365e-009 9.67308e-007 -6.53796e-007 -2.26248e-006 0.0122707 -0.00324832 -0.000685411 9.45627e-007 -4.99461e-008 4.74442e-009 9.67308e-007 -6.53796e-007 -2.26248e-006 1.08545e-006 -6.14356e-007 -7.36027e-007 9.67308e-007 -6.53796e-007 -2.26248e-006 -36.3693 -17.8984 44.7902 124.915 40.8693 -155.848 -17.6434 39.3783 63.3348 9.54166e-015 3.18055e-015 9.54166e-015 38.4282 -18.1221 -45.4397 -122.837 41.5557 154.38 20.8131 40.1825 -66.7386 4.88941e-006 -4.05217e-006 1.10508e-006 
